<svg width="24" height="24" viewBox="0 0 24 23" fill="none" xmlns="http://www.w3.org/2000/svg">
  <path d="M22.4001 4.49023C22.4001 6.42323 20.8331 7.99023 18.9001 7.99023C16.9671 7.99023 15.4001 6.42323 15.4001 4.49023C15.4001 2.55723 16.9671 0.990234 18.9001 0.990234C20.8331 0.990234 22.4001 2.55723 22.4001 4.49023Z" stroke="#877EFF" stroke-width="1.5"/>
  <path d="M21.3599 10.9609C21.4135 11.7911 21.4135 12.6509 21.3599 13.4811C21.0857 17.7234 17.7537 21.1027 13.5707 21.3807C12.1436 21.4756 10.6537 21.4754 9.22954 21.3807C8.7391 21.3481 8.20454 21.2311 7.74415 21.0415C7.23191 20.8305 6.97574 20.725 6.84558 20.741C6.71541 20.757 6.52654 20.8963 6.14882 21.1748C5.48282 21.6659 4.64381 22.0187 3.39957 21.9884C2.7704 21.9731 2.45582 21.9654 2.31498 21.7253C2.17415 21.4852 2.34955 21.1528 2.70035 20.488C3.18688 19.566 3.49515 18.5105 3.02805 17.6648C2.22357 16.4568 1.54024 15.0262 1.44038 13.4811C1.38673 12.6509 1.38673 11.7911 1.44038 10.9609C1.71455 6.71862 5.04653 3.33937 9.22954 3.06131C10.4319 2.98138 10.6813 2.9688 11.9001 3.02392" stroke="#877EFF" stroke-width="1.5" stroke-linecap="round" stroke-linejoin="round"/>
  <path d="M11.3956 12.7402H11.4046M15.3911 12.7402H15.4001M7.40015 12.7402H7.40912" stroke="#877EFF" stroke-width="2" stroke-linecap="round" stroke-linejoin="round"/>
</svg>
